<?xml version="1.0" encoding="UTF-8" standalone="no"?>
<!-- Created with Inkscape (http://www.inkscape.org/) -->

<svg
   width="139.73735mm"
   height="23.012896mm"
   viewBox="0 0 139.73735 23.012896"
   version="1.1"
   id="svg454"
   xml:space="preserve"
   inkscape:version="1.2.2 (b0a8486541, 2022-12-01)"
   sodipodi:docname="logo.svg"
   xmlns:inkscape="http://www.inkscape.org/namespaces/inkscape"
   xmlns:sodipodi="http://sodipodi.sourceforge.net/DTD/sodipodi-0.dtd"
   xmlns="http://www.w3.org/2000/svg"
   xmlns:svg="http://www.w3.org/2000/svg"><sodipodi:namedview
     id="namedview456"
     pagecolor="#ffffff"
     bordercolor="#666666"
     borderopacity="1.0"
     inkscape:showpageshadow="2"
     inkscape:pageopacity="0.0"
     inkscape:pagecheckerboard="0"
     inkscape:deskcolor="#d1d1d1"
     inkscape:document-units="mm"
     showgrid="false"
     showguides="true"
     inkscape:zoom="1.0053638"
     inkscape:cx="480.42311"
     inkscape:cy="295.91278"
     inkscape:window-width="1920"
     inkscape:window-height="1052"
     inkscape:window-x="1920"
     inkscape:window-y="0"
     inkscape:window-maximized="1"
     inkscape:current-layer="layer1" /><defs
     id="defs451" /><g
     inkscape:label="Layer 1"
     inkscape:groupmode="layer"
     id="layer1"
     transform="translate(-45.918619,-52.778599)"><g
       id="g2269"
       transform="translate(6.3161216,-43.579408)"><path
         style="fill:#ffe953;fill-opacity:1;fill-rule:evenodd;stroke:none;stroke-width:0.264583px;stroke-linecap:butt;stroke-linejoin:miter;stroke-opacity:1"
         d="m 45.111792,111.95618 2.773721,-5.48062 h 8.022162 l 2.769203,5.50145 z"
         id="path758"
         sodipodi:nodetypes="ccccc" /><path
         style="fill:#000000;fill-opacity:1;fill-rule:evenodd;stroke:none;stroke-width:0.264583px;stroke-linecap:butt;stroke-linejoin:miter;stroke-opacity:1"
         d="m 58.667899,111.97718 2.722593,5.42079 h 2.642999 l 2.860917,-5.49616 z"
         id="path2768"
         sodipodi:nodetypes="ccccc" /><path
         style="fill:#000000;fill-opacity:1;fill-rule:evenodd;stroke:none;stroke-width:0.264583px;stroke-linecap:butt;stroke-linejoin:miter;stroke-opacity:1"
         d="m 45.111792,103.81306 2.773721,-5.480617 h 8.022162 l 2.769203,5.501447 z"
         id="path2831"
         sodipodi:nodetypes="ccccc" /><path
         style="fill:#ffe953;fill-opacity:1;fill-rule:evenodd;stroke:none;stroke-width:0.264583px;stroke-linecap:butt;stroke-linejoin:miter;stroke-opacity:1"
         d="m 58.667899,103.83406 2.722593,5.42079 h 2.642999 l 2.860917,-5.49616 z"
         id="path2833"
         sodipodi:nodetypes="ccccc" /><path
         style="fill:none;fill-rule:evenodd;stroke:#000000;stroke-width:0.465;stroke-linecap:butt;stroke-linejoin:miter;stroke-dasharray:none;stroke-opacity:1"
         d="m 39.602497,111.95618 h 5.509295 l 2.773721,-5.48062 h 8.022162 l 5.482817,10.92241 h 2.642999 l 2.860917,-5.49616"
         id="path650" /><path
         style="fill:none;fill-rule:evenodd;stroke:#000000;stroke-width:0.465;stroke-linecap:butt;stroke-linejoin:miter;stroke-dasharray:none;stroke-opacity:1"
         d="m 45.09676,103.81156 2.773721,-5.480622 h 8.022162 l 5.482817,10.922412 h 2.642999 l 2.860917,-5.49616 h 5.412431"
         id="path656"
         sodipodi:nodetypes="ccccccc" /></g><g
       id="g2261"
       transform="translate(6.3161216,-41.951901)"><text
         xml:space="preserve"
         style="font-style:normal;font-variant:normal;font-weight:normal;font-stretch:normal;font-size:16px;line-height:125%;font-family:'Titillium Web';-inkscape-font-specification:'Titillium Web';font-variant-ligatures:none;font-variant-position:normal;font-variant-caps:normal;font-variant-numeric:normal;font-variant-alternates:normal;font-variant-east-asian:normal;font-feature-settings:normal;text-indent:0;text-align:start;text-decoration-line:none;text-decoration-style:solid;text-decoration-color:#000000;letter-spacing:0px;word-spacing:0px;text-transform:none;writing-mode:lr-tb;direction:ltr;text-orientation:mixed;dominant-baseline:auto;baseline-shift:baseline;text-anchor:start;white-space:normal;shape-padding:0;shape-margin:0;inline-size:0;opacity:1;vector-effect:none;fill:#ffe953;fill-opacity:1;stroke:none;stroke-width:0.16979px;stroke-linecap:butt;stroke-linejoin:miter;stroke-miterlimit:4;stroke-dasharray:none;stroke-dashoffset:0;stroke-opacity:1;-inkscape-stroke:none;stop-color:#000000;stop-opacity:1"
         x="295.72485"
         y="412.56931"
         id="text2889"
         transform="matrix(1.5582946,0,0,1.5582946,-349.27864,-530.52166)"><tspan
           sodipodi:role="line"
           id="tspan2887"
           x="295.72485"
           y="412.56931"
           style="font-style:italic;font-variant:normal;font-weight:600;font-stretch:normal;font-family:'Titillium Web';-inkscape-font-specification:'Titillium Web Semi-Bold Italic';fill:#ffe953;fill-opacity:1;stroke-width:0.16979px">pulseq</tspan></text><path
         style="fill:#000000;stroke-width:1"
         d="m 76.1445,112.93111 -0.898402,-0.91409 1.388325,-6.03861 1.388329,-6.038628 h 3.414268 c 3.650166,0 4.641451,0.292328 5.229526,1.542178 0.251816,0.5352 0.08976,1.61636 -0.864327,5.7662 l -1.17426,5.10752 h -1.034656 -1.034658 l 1.053451,-4.58206 c 1.28911,-5.60706 1.240699,-5.76451 -1.772539,-5.76451 h -1.915385 l -1.440629,5.91805 -1.440631,5.91805 z m 33.08272,-4.70725 c 1.21657,-5.29155 1.21892,-5.31628 0.61581,-5.78176 -0.39771,-0.3068 -1.10461,-0.43614 -2.05671,-0.37633 l -1.45071,0.0911 -1.25327,5.09939 -1.25328,5.09937 h -1.02767 -1.02769 l 1.1894,-5.17327 1.18937,-5.17329 h -2.21713 -2.217127 l -1.189376,5.17329 -1.189391,5.17327 h -1.034654 -1.034666 l 1.427258,-6.20793 1.427263,-6.207957 h 6.370453 c 9.10254,0 9.02134,-0.08581 7.24224,7.652437 l -1.08406,4.71524 -1.13711,0.61534 c -0.62542,0.33844 -1.2212,0.61534 -1.32395,0.61534 -0.10274,0 0.36299,-2.39143 1.03499,-5.31428 z m -20.207463,3.94875 c -0.08941,-0.11609 0.459331,-2.91598 1.219401,-6.22195 l 1.381948,-6.010878 h 1.188461 1.188462 l -1.490153,6.134048 -1.490153,6.13404 -0.917691,0.0879 c -0.50473,0.0483 -0.990924,-0.006 -1.080245,-0.12317 z m 3.377399,-15.608302 c 0.08516,-0.370437 2.068457,-1.650002 2.55745,-1.650002 0.102792,0 0.07977,0.465596 -0.05106,1.034655 -0.232215,1.01003 -0.266033,1.034666 -1.420338,1.034666 -0.823789,0 -1.153218,-0.127192 -1.086057,-0.419319 z"
         id="path2193" /></g><g
       id="g2319"
       transform="translate(6.3161216,-6.4721937)"><path
         style="fill:#ffe953;fill-opacity:1;fill-rule:evenodd;stroke:none;stroke-width:0.264583px;stroke-linecap:butt;stroke-linejoin:miter;stroke-opacity:1"
         d="m 45.111792,111.95618 2.773721,-5.48062 h 8.022162 l 2.769203,5.50145 z"
         id="path2307"
         sodipodi:nodetypes="ccccc" /><path
         style="fill:#000000;fill-opacity:1;fill-rule:evenodd;stroke:none;stroke-width:0.264583px;stroke-linecap:butt;stroke-linejoin:miter;stroke-opacity:1"
         d="m 58.667899,111.97718 2.722593,5.42079 h 2.642999 l 2.860917,-5.49616 z"
         id="path2309"
         sodipodi:nodetypes="ccccc" /><path
         style="fill:#000000;fill-opacity:1;fill-rule:evenodd;stroke:none;stroke-width:0.264583px;stroke-linecap:butt;stroke-linejoin:miter;stroke-opacity:1"
         d="m 45.111792,103.81306 2.773721,-5.480617 h 8.022162 l 2.769203,5.501447 z"
         id="path2311"
         sodipodi:nodetypes="ccccc" /><path
         style="fill:#ffe953;fill-opacity:1;fill-rule:evenodd;stroke:none;stroke-width:0.264583px;stroke-linecap:butt;stroke-linejoin:miter;stroke-opacity:1"
         d="m 58.667899,103.83406 2.722593,5.42079 h 2.642999 l 2.860917,-5.49616 z"
         id="path2313"
         sodipodi:nodetypes="ccccc" /><path
         style="fill:none;fill-rule:evenodd;stroke:#000000;stroke-width:0.465;stroke-linecap:butt;stroke-linejoin:miter;stroke-dasharray:none;stroke-opacity:1"
         d="m 39.602497,111.95618 h 5.509295 l 2.773721,-5.48062 h 8.022162 l 5.482817,10.92241 h 2.642999 l 2.860917,-5.49616"
         id="path2315" /><path
         style="fill:none;fill-rule:evenodd;stroke:#000000;stroke-width:0.465;stroke-linecap:butt;stroke-linejoin:miter;stroke-dasharray:none;stroke-opacity:1"
         d="m 45.09676,103.81156 2.773721,-5.480622 h 8.022162 l 5.482817,10.922412 h 2.642999 l 2.860917,-5.49616 h 5.412431"
         id="path2317"
         sodipodi:nodetypes="ccccccc" /></g><text
       xml:space="preserve"
       style="font-style:normal;font-variant:normal;font-weight:normal;font-stretch:normal;font-size:16px;line-height:125%;font-family:'Titillium Web';-inkscape-font-specification:'Titillium Web';font-variant-ligatures:none;font-variant-position:normal;font-variant-caps:normal;font-variant-numeric:normal;font-variant-alternates:normal;font-variant-east-asian:normal;font-feature-settings:normal;text-indent:0;text-align:start;text-decoration-line:none;text-decoration-style:solid;text-decoration-color:#000000;letter-spacing:0px;word-spacing:0px;text-transform:none;writing-mode:lr-tb;direction:ltr;text-orientation:mixed;dominant-baseline:auto;baseline-shift:baseline;text-anchor:start;white-space:normal;shape-padding:0;shape-margin:0;inline-size:0;vector-effect:none;fill:#ffe953;fill-opacity:1;stroke:none;stroke-width:0.16979px;stroke-linecap:butt;stroke-linejoin:miter;stroke-miterlimit:4;stroke-dasharray:none;stroke-dashoffset:0;stroke-opacity:1;-inkscape-stroke:none;stop-color:#000000"
       x="295.72485"
       y="412.56931"
       id="text2323"
       transform="matrix(1.5582946,0,0,1.5582946,-342.96252,-535.36635)"><tspan
         sodipodi:role="line"
         id="tspan2321"
         x="295.72485"
         y="412.56931"
         style="font-style:italic;font-variant:normal;font-weight:600;font-stretch:normal;font-family:'Titillium Web';-inkscape-font-specification:'Titillium Web Semi-Bold Italic';fill:#ffe953;fill-opacity:1;stroke-width:0.16979px">pulseq</tspan></text><path
       style="fill:#000000;stroke-width:1"
       d="m 82.460622,108.08642 -0.898402,-0.91409 1.388325,-6.03861 1.388329,-6.038625 h 3.414268 c 3.650166,0 4.641451,0.292328 5.229526,1.542178 0.251816,0.5352 0.08976,1.61636 -0.864327,5.766197 l -1.17426,5.10752 h -1.034656 -1.034658 l 1.053451,-4.58206 c 1.28911,-5.607057 1.240699,-5.764507 -1.772539,-5.764507 h -1.915385 l -1.440629,5.918047 -1.440631,5.91805 z m 33.082718,-4.70725 c 1.21657,-5.291547 1.21892,-5.316277 0.61581,-5.781757 -0.39771,-0.3068 -1.10461,-0.43614 -2.05671,-0.37633 l -1.45071,0.0911 -1.25327,5.099387 -1.25328,5.09937 h -1.02767 -1.02769 l 1.1894,-5.17327 1.18937,-5.173287 h -2.21713 -2.21713 l -1.18937,5.173287 -1.18939,5.17327 h -1.03466 -1.03466 l 1.42726,-6.20793 1.42726,-6.207954 h 6.37045 c 9.10254,0 9.02134,-0.08581 7.24224,7.652434 l -1.08406,4.71524 -1.13711,0.61534 c -0.62542,0.33844 -1.2212,0.61534 -1.32395,0.61534 -0.10274,0 0.36299,-2.39143 1.03499,-5.31428 z m -20.207461,3.94875 c -0.08941,-0.11609 0.459331,-2.91598 1.219401,-6.22195 l 1.381948,-6.010875 h 1.188461 1.188461 l -1.490152,6.134045 -1.490153,6.13404 -0.917691,0.0879 c -0.50473,0.0483 -0.990924,-0.006 -1.080245,-0.12317 z m 3.377399,-15.608299 c 0.08516,-0.370437 2.068452,-1.650002 2.557452,-1.650002 0.10279,0 0.0798,0.465596 -0.0511,1.034655 -0.23222,1.01003 -0.26604,1.034666 -1.42034,1.034666 -0.823789,0 -1.153218,-0.127192 -1.086057,-0.419319 z"
       id="path2325" /><text
       xml:space="preserve"
       style="font-style:normal;font-variant:normal;font-weight:normal;font-stretch:normal;font-size:16px;line-height:125%;font-family:'Titillium Web';-inkscape-font-specification:'Titillium Web';font-variant-ligatures:none;font-variant-position:normal;font-variant-caps:normal;font-variant-numeric:normal;font-variant-alternates:normal;font-variant-east-asian:normal;font-feature-settings:normal;text-indent:0;text-align:start;text-decoration-line:none;text-decoration-style:solid;text-decoration-color:#000000;letter-spacing:0px;word-spacing:0px;text-transform:none;writing-mode:lr-tb;direction:ltr;text-orientation:mixed;dominant-baseline:auto;baseline-shift:baseline;text-anchor:start;white-space:normal;shape-padding:0;shape-margin:0;inline-size:0;vector-effect:none;fill:#000000;fill-opacity:1;stroke:none;stroke-width:0.16979px;stroke-linecap:butt;stroke-linejoin:miter;stroke-miterlimit:4;stroke-dasharray:none;stroke-dashoffset:0;stroke-opacity:1;-inkscape-stroke:none;stop-color:#000000"
       x="295.72485"
       y="412.56931"
       id="text2334"
       transform="matrix(1.5582946,0,0,1.5582946,-276.1169,-535.36635)"><tspan
         sodipodi:role="line"
         id="tspan2332"
         x="295.72485"
         y="412.56931"
         style="font-style:italic;font-variant:normal;font-weight:600;font-stretch:normal;font-family:'Titillium Web';-inkscape-font-specification:'Titillium Web Semi-Bold Italic';fill:#000000;fill-opacity:1;stroke-width:0.16979px">GUI</tspan></text></g></svg>
